<svg width="100%" viewBox="0 0 620 320" xmlns="http://www.w3.org/2000/svg" font-family="sans-serif">
<text x="310" y="30" text-anchor="middle" font-size="17" font-weight="600" fill="#2C2C2A">Confusion matrix — positive = invalid proof</text>
<text x="310" y="50" text-anchor="middle" font-size="12" fill="#5F5E5A">FP=0 (no honest buyer wrongly rejected) · FN exposure ₱133 (all low-value)</text>
<text x="240" y="62" text-anchor="middle" font-size="12" fill="#5F5E5A">pred REJECT</text>
<text x="380" y="62" text-anchor="middle" font-size="12" fill="#5F5E5A">pred APPROVE</text>
<text x="520" y="62" text-anchor="middle" font-size="12" fill="#5F5E5A">ESCALATED</text>
<text x="158" y="115" text-anchor="end" font-size="12" fill="#5F5E5A">actual INVALID</text>
<text x="158" y="205" text-anchor="end" font-size="12" fill="#5F5E5A">actual VALID</text>
<rect x="170" y="70" width="134" height="84" rx="6" fill="#EAF3DE" stroke="#27500A" stroke-width="0.5"/>
<text x="237" y="112" text-anchor="middle" font-size="30" font-weight="600" fill="#27500A">2</text>
<text x="237" y="136" text-anchor="middle" font-size="11" fill="#27500A">TP · fraud caught</text>
<rect x="310" y="70" width="134" height="84" rx="6" fill="#FCEBEB" stroke="#791F1F" stroke-width="0.5"/>
<text x="377" y="112" text-anchor="middle" font-size="30" font-weight="600" fill="#791F1F">3</text>
<text x="377" y="136" text-anchor="middle" font-size="11" fill="#791F1F">FN · bad approval</text>
<rect x="450" y="70" width="134" height="84" rx="6" fill="#FAEEDA" stroke="#854F0B" stroke-width="0.5"/>
<text x="517" y="112" text-anchor="middle" font-size="30" font-weight="600" fill="#854F0B">5</text>
<text x="517" y="136" text-anchor="middle" font-size="11" fill="#854F0B">escalated</text>
<rect x="170" y="160" width="134" height="84" rx="6" fill="#FCEBEB" stroke="#791F1F" stroke-width="0.5"/>
<text x="237" y="202" text-anchor="middle" font-size="30" font-weight="600" fill="#791F1F">0</text>
<text x="237" y="226" text-anchor="middle" font-size="11" fill="#791F1F">FP · bad rejection</text>
<rect x="310" y="160" width="134" height="84" rx="6" fill="#EAF3DE" stroke="#27500A" stroke-width="0.5"/>
<text x="377" y="202" text-anchor="middle" font-size="30" font-weight="600" fill="#27500A">1</text>
<text x="377" y="226" text-anchor="middle" font-size="11" fill="#27500A">TN · honest OK</text>
<rect x="450" y="160" width="134" height="84" rx="6" fill="#FAEEDA" stroke="#854F0B" stroke-width="0.5"/>
<text x="517" y="202" text-anchor="middle" font-size="30" font-weight="600" fill="#854F0B">2</text>
<text x="517" y="226" text-anchor="middle" font-size="11" fill="#854F0B">escalated</text>
</svg>